<svg id="visual" viewBox="0 0 1536 792" width="1536" height="792" xmlns="http://www.w3.org/2000/svg" xmlns:xlink="http://www.w3.org/1999/xlink" version="1.1"><rect width="1536" height="792" fill="#4FACF7"></rect><g><g transform="translate(7 2)"><path d="M81.6 -96.8C104.5 -78 120.9 -51.1 117.4 -27.2C113.9 -3.2 90.6 17.8 72.4 34.7C54.2 51.7 41.2 64.5 24.7 72.6C8.2 80.7 -11.8 84.1 -29.1 78.4C-46.4 72.8 -60.9 58.2 -69.7 41.1C-78.5 24.1 -81.5 4.6 -77.1 -12.5C-72.8 -29.6 -61.2 -44.3 -47.1 -64.7C-33 -85 -16.5 -110.9 6.4 -118.5C29.4 -126.2 58.7 -115.6 81.6 -96.8Z" stroke="#FFFFFF" fill="none" stroke-width="3"></path></g><g transform="translate(705 187)"><path d="M36.7 -41.4C49.8 -32.8 64.1 -23.3 69.9 -9.5C75.8 4.3 73.1 22.5 63.4 34.2C53.7 45.9 37.1 51.1 22.5 52.3C7.8 53.5 -4.8 50.7 -19 47.6C-33.3 44.4 -49.1 40.9 -57.3 31C-65.5 21 -66.2 4.6 -64.3 -12.2C-62.4 -29.1 -57.9 -46.4 -46.8 -55.4C-35.6 -64.3 -17.8 -64.9 -3 -61.3C11.8 -57.8 23.6 -50 36.7 -41.4Z" stroke="#FFFFFF" fill="none" stroke-width="3"></path></g><g transform="translate(1294 292)"><path d="M58.1 -66.9C75.8 -54.3 91.2 -36.5 94.5 -16.8C97.9 3 89.2 24.8 75.6 39.3C62 53.9 43.5 61.2 24.9 67.7C6.3 74.1 -12.3 79.6 -29.2 75.5C-46.1 71.5 -61.2 57.8 -66.5 41.7C-71.7 25.7 -67 7.4 -63.5 -10.9C-59.9 -29.2 -57.5 -47.4 -47.1 -61.3C-36.7 -75.2 -18.3 -84.8 0.9 -85.8C20.2 -86.9 40.3 -79.5 58.1 -66.9Z" stroke="#FFFFFF" fill="none" stroke-width="3"></path></g><g transform="translate(1346 770)"><path d="M43.3 -59.2C55.3 -41.6 63.5 -27.1 72 -8.3C80.6 10.5 89.5 33.7 81.1 45.4C72.7 57.2 46.9 57.5 26.5 58.8C6.2 60.1 -8.7 62.4 -26.6 61.1C-44.6 59.8 -65.7 54.9 -77.5 41.4C-89.2 27.9 -91.7 5.6 -87.9 -15.5C-84.1 -36.6 -74.2 -56.5 -58.5 -73.5C-42.8 -90.4 -21.4 -104.3 -2.9 -100.9C15.7 -97.5 31.4 -76.8 43.3 -59.2Z" stroke="#FFFFFF" fill="none" stroke-width="3"></path></g><g transform="translate(1072 19)"><path d="M45 -47.9C57.6 -43.1 66.6 -28.2 65.6 -14.5C64.6 -0.7 53.6 11.9 43.2 20.4C32.9 28.8 23.2 33.1 13.6 36C4 38.9 -5.7 40.4 -16.4 39.1C-27 37.7 -38.8 33.5 -48.7 24.3C-58.5 15.1 -66.5 1 -64.6 -11.6C-62.7 -24.2 -50.8 -35.3 -38.4 -40.1C-25.9 -44.9 -13 -43.4 1.6 -45.4C16.2 -47.3 32.4 -52.6 45 -47.9Z" stroke="#FFFFFF" fill="none" stroke-width="3"></path></g><g transform="translate(596 484)"><path d="M40.7 -46.1C52.5 -38.6 61.5 -25.5 68.1 -8.9C74.7 7.7 78.9 27.8 72.5 44.7C66.1 61.5 49.2 75.1 31.3 78.3C13.4 81.5 -5.5 74.3 -25.4 67.9C-45.3 61.5 -66.2 55.9 -72.2 43C-78.1 30 -69.1 9.7 -65.4 -11.6C-61.8 -32.9 -63.4 -55.2 -53.4 -62.9C-43.4 -70.6 -21.7 -63.8 -3.6 -59.5C14.5 -55.2 29 -53.5 40.7 -46.1Z" stroke="#FFFFFF" fill="none" stroke-width="3"></path></g><g transform="translate(999 721)"><path d="M73 -82.2C93.8 -69.6 109.3 -45.8 108 -23.4C106.8 -1.1 88.7 19.9 74.7 42C60.6 64.2 50.5 87.5 34.1 93.3C17.8 99 -4.8 87.1 -25.4 76.6C-45.9 66.1 -64.5 57 -78 41.3C-91.6 25.6 -100.2 3.2 -96.5 -16.8C-92.7 -36.8 -76.6 -54.4 -58.5 -67.5C-40.3 -80.6 -20.2 -89.2 3 -92.8C26.1 -96.3 52.2 -94.8 73 -82.2Z" stroke="#FFFFFF" fill="none" stroke-width="3"></path></g></g></svg>